<?xml version="1.0" encoding="UTF-8"?>
<svg width="1440" height="320" viewBox="0 0 1440 320" xmlns="http://www.w3.org/2000/svg">
  <defs>
    <linearGradient id="waveGrad" x1="0%" y1="0%" x2="100%" y2="100%">
      <stop offset="0%" style="stop-color:#2196f3;stop-opacity:0.1" />
      <stop offset="100%" style="stop-color:#f50057;stop-opacity:0.1" />
    </linearGradient>
  </defs>
  <path fill="url(#waveGrad)" d="M0,96L48,112C96,128,192,160,288,160C384,160,480,128,576,112C672,96,768,96,864,112C960,128,1056,160,1152,160C1248,160,1344,128,1392,112L1440,96L1440,320L1392,320C1344,320,1248,320,1152,320C1056,320,960,320,864,320C768,320,672,320,576,320C480,320,384,320,288,320C192,320,96,320,48,320L0,320Z"></path>
</svg> 